#!OML:ASF F:\VICON\USERDATA\INSTALL\rory3\rory3.ASF
:FULLY-SPECIFIED
:DEGREES
145
root 0.646689966583888 17.70554233812945 27.890407402884577 3.4713779529660673 -5.748892167132565 -3.0812910905681203
lfemur -21.36962193030423 5.5489160667161315 -16.584995335712755
ltibia 92.81763840955516
lfoot 4.036770802277719 -5.911026260144315
ltoes -14.886949011575425
rfemur -12.767557695042271 5.425768487870917 30.778799465037828
rtibia 72.63659099074975
rfoot 2.420632183021254 -8.401686517517241
rtoes 10.258753043253638
lowerback 14.124917884364873 1.8101218324472375 1.9551992531046014
upperback -0.79628496270548 2.666095560174479 0.3310026937622452
thorax -9.784856104721856 1.2985471713160068 -0.6478310472391637
lowerneck -19.767384120458107 -4.282980103470866 -2.4840833581017954
upperneck 7.076228888672529 -5.950610979078908 6.0727754613069065
head 5.859046592013373 -2.345971779619833 1.6565206188444028
lclavicle -1.3367475555234582e-15 -2.758979314863034e-15
lhumerus -41.76062166951411 -8.242102067446623 90.03593047111067
lradius 117.26906148507979
lwrist 31.679711661835995
lhand -23.83036812152514 4.126638953546476
lfingers 7.12502
lthumb 2.379105149161705 33.74944248758625
rclavicle -1.3367475554800176e-15 -2.7589793148331108e-15
rhumerus -51.72707445248626 11.354258278794132 -98.17152218279487
rradius 113.75398297406787
rwrist -22.36828458269505
rhand -18.121049606844338 38.961883324961946
rfingers 7.12502
rthumb 7.5484745834701465 8.672239751652173
146
root 0.645588297091629 17.73158140797791 27.926534409780047 3.509742455651581 -5.905482812986362 -3.18136084985464
lfemur -21.900526324934873 5.770813260699361 -16.50636906912812
ltibia 92.48077901675919
lfoot 5.099073038295025 -6.434423943370383
ltoes -15.652135183133412
rfemur -12.435499528645138 5.5932152142272535 30.91457121426024
rtibia 72.72985184052797
rfoot 2.543561040228895 -8.595692935832407
rtoes 9.907584071038471
lowerback 14.124359556341684 1.815916607587047 2.042809535079085
upperback -0.7920961794760675 2.6843745604951597 0.38242288120722834
thorax -9.700110003732451 1.3072141132012864 -0.6517136385811646
lowerneck -19.705270601443896 -4.281051340570504 -2.490519378027954
upperneck 7.217585392436166 -5.9366104079753415 6.014851493362197
head 5.960301002268512 -2.3385476416153277 1.629789581644352
lclavicle -1.3367475555304458e-15 -2.758979314868592e-15
lhumerus -42.27907138562687 -8.070518502331055 90.06978490434261
lradius 117.10506884743032
lwrist 31.629199167465885
lhand -23.733855956229412 4.24441965375092
lfingers 7.12502
lthumb 2.378625593331393 33.50367076862935
rclavicle -1.3367475554809201e-15 -2.758979314833871e-15
rhumerus -51.97562908608801 11.459096244563423 -98.15176853503982
rradius 113.9134742967728
rwrist -22.386345506747706
rhand -18.18239882505843 39.42755877902448
rfingers 7.12502
rthumb 7.479016584373017 9.135748224660752
147
root 0.6425540531053793 17.76357881708415 27.894870867598836 3.55047265488178 -6.03616798302777 -3.283082795129876
lfemur -22.408965457521095 5.932087945748364 -16.452018172385497
ltibia 92.03077267435137
lfoot 6.090165142810896 -6.858273574351395
ltoes -17.531888520592897
rfemur -12.17086138970786 5.769438920949499 31.017654782373654
rtibia 72.81723398710223
rfoot 2.8290804352018477 -8.821612868081077
rtoes 10.366876343093738
lowerback 14.14977663315249 1.823134718604173 2.1280600265024887
upperback -0.8124447904624652 2.721336307315772 0.44585330820109215
thorax -9.685817422912187 1.3259561984039139 -0.6678133856580715
lowerneck -19.559838975635554 -4.279105875859441 -2.4945563392021897
upperneck 7.354734746979656 -5.932283431911777 5.961120158508654
head 6.043867275286362 -2.3360004616705847 1.6072893492294318
lclavicle -1.336747555526025e-15 -2.758979314865145e-15
lhumerus -42.70691901268319 -7.946502877118718 90.10662598935816
lradius 116.85604551412521
lwrist 31.65918495920195
lhand -23.66467405120645 4.265588372023878
lfingers 7.12502
lthumb 2.6458511837011214 33.47464821188565
rclavicle -1.3367475554778696e-15 -2.7589793148315003e-15
rhumerus -52.24997450876886 11.522095403152646 -98.10630824507692
rradius 114.08902437313994
rwrist -22.398402011343258
rhand -18.21357032184746 39.92833661612147
rfingers 7.12502
rthumb 7.430867336222079 9.673391009906403
148
root 0.6334417589847607 17.8007323152773 27.80468747782966 3.5717561929778023 -6.155553631334601 -3.362173873230345
lfemur -22.847339846611554 6.036108120660966 -16.444805750742
ltibia 91.52010542363521
lfoot 6.954897969315285 -7.371896856032292
ltoes -18.16238422917506
rfemur -11.95663148249206 5.931961137577305 31.09829798271298
rtibia 72.89004351557664
rfoot 3.221256368229637 -8.964799061462482
rtoes 10.127336715206049
lowerback 14.199298106743878 1.8353689012978855 2.1854007236308877
upperback -0.8199944121478173 2.7528394669341845 0.52481521901806
thorax -9.675174558664027 1.3419657334572355 -0.6625017980375101
lowerneck -19.3504964072932 -4.306209280094144 -2.482135474292804
upperneck 7.502874199194478 -5.967500757557064 5.9073381869206045
head 6.099424207411788 -2.364106261919002 1.5856559733396305
lclavicle -1.336747555524917e-15 -2.7589793148643986e-15
lhumerus -43.0997057887419 -7.74408745290836 90.18437397683077
lradius 116.59206116728734
lwrist 31.47093949170701
lhand -23.44855231536004 4.21549942224574
lfingers 7.12502
lthumb 2.9085766119175647 33.468779189890775
rclavicle -1.336747555478494e-15 -2.7589793148321322e-15
rhumerus -52.50375147193401 11.554696399913885 -98.03148716640973
rradius 114.24447747314501
rwrist -22.399110140400715
rhand -18.261789170842963 40.39663983504567
rfingers 7.12502
rthumb 7.385927643382228 10.221934514717345
